# xmcd CD database file
# Copyright (C) 1993-1998 Ti Kan
#
# Track frame offsets:
# 180
# 15158
# 29533
# 43543
# 58225
# 70662
# 89547
# 104832
# 119141
# 132848
# 147097
# 161804
#
# Disc length: 2332 seconds
# Revision: 0
# Processed by: cddbd v1.4b41PL1 Copyright (c) Steve Scherf et al.
# Submitted via: CDSpectrumPro v3.3.331
#
DISCID=ad091a0c
DTITLE=จักรพรรณ์ อาบครบุรี - หัวแก้วหัวแหวน 5
DYEAR=1900
DGENRE=
TTITLE0=สมัครรักสมัครแฟน
TTITLE1=โปรดเถิดดวงใจ
TTITLE2=มนต์เมืองเหนือ
TTITLE3=ฝนเดือนหก
TTITLE4=เสียงขลุ่ยเรียกนาง
TTITLE5=รอยรักในอารมณ์
TTITLE6=กลิ่นโคลนสาบควาย
TTITLE7=ชมทุ่ง
TTITLE8=บ้านนี้ฉันรัก
TTITLE9=บัวตูมบัวบาน
TTITLE10=รักแล้งเดือนห้า
TTITLE11=คืนนั้นสวรรค์ล่ม
EXTD=
EXTT0=
EXTT1=
EXTT2=
EXTT3=
EXTT4=
EXTT5=
EXTT6=
EXTT7=
EXTT8=
EXTT9=
EXTT10=
EXTT11=
PLAYORDER=
